<svg width="172" height="47" viewBox="0 0 172 47" fill="none" xmlns="http://www.w3.org/2000/svg">
<path d="M4.19692 35V16.4477H0.953846V11.3446H4.19692V8.57846C4.19692 5.71692 4.91231 3.68205 6.34308 2.47384C7.80564 1.26564 9.77692 0.661538 12.2569 0.661538H14.88V5.86H13.2108C12.1615 5.86 11.4144 6.06667 10.9692 6.48C10.5241 6.89333 10.3015 7.59282 10.3015 8.57846V11.3446H15.4046V16.4477H10.3015V35H4.19692ZM20.2215 35V0.661538H26.3262V35H20.2215ZM41.4524 35.5723C38.4955 35.5723 36.2063 34.6503 34.5847 32.8062C32.995 30.9621 32.2001 28.2595 32.2001 24.6985V11.3446H38.2571V24.1262C38.2571 26.161 38.6704 27.719 39.4971 28.8C40.3237 29.881 41.6273 30.4215 43.4078 30.4215C45.093 30.4215 46.476 29.8174 47.5571 28.6092C48.6699 27.401 49.2263 25.7159 49.2263 23.5538V11.3446H55.3309V35H49.9417L49.4647 30.9938C48.7335 32.3928 47.6683 33.5056 46.2694 34.3323C44.9022 35.159 43.2965 35.5723 41.4524 35.5723ZM59.3561 35L67.9407 23.1723L59.3561 11.3446H65.8899L71.8991 19.7385L77.8607 11.3446H84.4422L75.8099 23.1723L84.4422 35H77.8607L71.8991 26.6062L65.8899 35H59.3561ZM98.3468 27.9415C97.2021 27.9415 96.137 27.8144 95.1514 27.56L93.3868 29.3246C93.9273 29.6108 94.6585 29.8492 95.5806 30.04C96.5027 30.2308 97.997 30.4215 100.064 30.6123C103.211 30.8985 105.501 31.6456 106.931 32.8538C108.362 34.0621 109.078 35.7313 109.078 37.8615C109.078 39.2605 108.696 40.58 107.933 41.82C107.17 43.0918 105.993 44.1092 104.404 44.8723C102.814 45.6672 100.779 46.0646 98.2991 46.0646C94.9288 46.0646 92.2103 45.4287 90.1437 44.1569C88.077 42.9169 87.0437 41.041 87.0437 38.5292C87.0437 36.399 88.077 34.5549 90.1437 32.9969C89.5078 32.7108 88.9514 32.4087 88.4744 32.0908C88.0293 31.7728 87.6319 31.439 87.2821 31.0892V29.9923L91.4314 25.6046C89.5873 23.9831 88.6652 21.9005 88.6652 19.3569C88.6652 17.7672 89.0468 16.3205 89.8098 15.0169C90.6047 13.7133 91.7175 12.68 93.1483 11.9169C94.5791 11.1538 96.3119 10.7723 98.3468 10.7723C99.6821 10.7723 100.922 10.9631 102.067 11.3446H111.033V15.0646L106.979 15.3508C107.615 16.559 107.933 17.8944 107.933 19.3569C107.933 20.9467 107.551 22.3933 106.788 23.6969C106.025 25.0005 104.912 26.0338 103.45 26.7969C102.019 27.56 100.318 27.9415 98.3468 27.9415ZM98.3468 23.2677C99.5868 23.2677 100.604 22.9338 101.399 22.2662C102.226 21.5985 102.639 20.6446 102.639 19.4046C102.639 18.1646 102.226 17.2108 101.399 16.5431C100.604 15.8754 99.5868 15.5415 98.3468 15.5415C97.0432 15.5415 95.9939 15.8754 95.1991 16.5431C94.4042 17.2108 94.0068 18.1646 94.0068 19.4046C94.0068 20.6446 94.4042 21.5985 95.1991 22.2662C95.9939 22.9338 97.0432 23.2677 98.3468 23.2677ZM92.6237 37.9092C92.6237 39.0856 93.1642 39.96 94.2452 40.5323C95.358 41.1364 96.7093 41.4385 98.2991 41.4385C99.8252 41.4385 101.065 41.1205 102.019 40.4846C102.973 39.8805 103.45 39.0538 103.45 38.0046C103.45 37.1462 103.132 36.4308 102.496 35.8585C101.892 35.2862 100.668 34.9364 98.8237 34.8092C97.5201 34.7138 96.3119 34.5708 95.1991 34.38C94.277 34.8887 93.6093 35.4451 93.196 36.0492C92.8144 36.6533 92.6237 37.2733 92.6237 37.9092ZM118.775 7.67231C117.662 7.67231 116.74 7.33846 116.009 6.67077C115.309 6.00308 114.96 5.16051 114.96 4.14308C114.96 3.12564 115.309 2.29897 116.009 1.66307C116.74 0.995384 117.662 0.661538 118.775 0.661538C119.888 0.661538 120.794 0.995384 121.494 1.66307C122.225 2.29897 122.59 3.12564 122.59 4.14308C122.59 5.16051 122.225 6.00308 121.494 6.67077C120.794 7.33846 119.888 7.67231 118.775 7.67231ZM115.723 35V11.3446H121.827V35H115.723ZM129.296 35V16.4477H126.053V11.3446H129.296V8.57846C129.296 5.71692 130.011 3.68205 131.442 2.47384C132.905 1.26564 134.876 0.661538 137.356 0.661538H139.979V5.86H138.31C137.261 5.86 136.514 6.06667 136.068 6.48C135.623 6.89333 135.401 7.59282 135.401 8.57846V11.3446H140.504V16.4477H135.401V35H129.296ZM155.879 35C153.399 35 151.411 34.3959 149.917 33.1877C148.423 31.9795 147.676 29.8333 147.676 26.7492V16.4477H143.622V11.3446H147.676L148.391 5.00154H153.78V11.3446H160.171V16.4477H153.78V26.7969C153.78 27.9415 154.019 28.7364 154.496 29.1815C155.004 29.5949 155.863 29.8015 157.071 29.8015H160.028V35H155.879ZM168.035 35.3338C166.922 35.3338 166 34.9841 165.269 34.2846C164.57 33.5851 164.22 32.7426 164.22 31.7569C164.22 30.7395 164.57 29.881 165.269 29.1815C166 28.4821 166.922 28.1323 168.035 28.1323C169.148 28.1323 170.054 28.4821 170.754 29.1815C171.485 29.881 171.851 30.7395 171.851 31.7569C171.851 32.7426 171.485 33.5851 170.754 34.2846C170.054 34.9841 169.148 35.3338 168.035 35.3338Z" fill="white"/>
</svg>
