<svg width="18" height="18" viewBox="0 0 18 18" fill="none" xmlns="http://www.w3.org/2000/svg">
<path d="M1.56347 4.50523C1.84103 4.11766 2.09897 3.71679 2.4117 3.35373C2.9805 2.69339 3.62461 2.12747 4.36218 1.65904C5.02382 1.23884 5.72157 0.907643 6.46821 0.676055C7.6308 0.315407 8.81757 0.208163 10.0264 0.346115C10.91 0.446951 11.7613 0.672527 12.572 1.03786C13.0628 1.25897 13.5245 1.53217 13.9769 1.82723C14.8888 2.42177 15.6192 3.19573 16.2298 4.08C16.882 5.0245 17.3058 6.07515 17.5383 7.2021C17.7015 7.99349 17.7705 8.79226 17.7004 9.59624C17.614 10.5875 17.3939 11.5433 16.9826 12.462C16.6348 13.239 16.2054 13.9524 15.6556 14.5968C15.1178 15.2272 14.5113 15.7787 13.8143 16.2334C13.3396 16.543 12.8449 16.8194 12.3226 17.0245C11.4488 17.3679 10.5425 17.6 9.59431 17.6407C8.92669 17.6693 8.26285 17.658 7.60427 17.5412C7.0386 17.4408 6.4865 17.2943 5.946 17.0913C5.42162 16.8944 4.91305 16.6611 4.44447 16.3662C3.7689 15.941 3.15989 15.4249 2.61794 14.8303C2.01411 14.1678 1.52451 13.4332 1.1499 12.6219C0.620697 11.4759 0.360453 10.2675 0.344973 9.00663C0.339141 8.53241 0.393537 8.06185 0.456753 7.59245C0.461289 7.55886 0.456681 7.52408 0.456321 7.48981C0.511617 7.45554 0.506721 7.39556 0.516693 7.34326C0.657309 6.60587 0.894477 5.90113 1.21574 5.22264C1.32957 4.98238 1.48664 4.76313 1.56347 4.50523ZM11.7056 9.16255C11.941 9.03749 12.1646 8.96581 12.3413 8.80795C13.0224 8.19959 13.2039 6.76772 12.0984 6.07796C11.7541 5.86308 11.3867 5.70381 10.9907 5.54131C11.0562 5.01099 11.2682 4.51474 11.3371 3.9716C11.0104 3.89064 10.7043 3.78318 10.3858 3.74866C10.2556 4.25903 10.1307 4.74834 10.0015 5.25479C9.75746 5.18005 9.50615 5.18714 9.27643 5.05776C9.3593 4.53972 9.55626 4.05437 9.61008 3.53446C9.27448 3.48175 8.9903 3.35107 8.66454 3.337C8.53627 3.84852 8.41214 4.34348 8.28344 4.85673C7.63746 4.75773 7.04436 4.53558 6.39272 4.41613C6.24955 4.73689 6.18615 5.07533 6.1287 5.4354C6.34095 5.48551 6.52549 5.52983 6.71039 5.5726C7.17713 5.68052 7.305 5.93569 7.19419 6.34386C7.11535 6.6342 7.04421 6.92666 6.97164 7.21869C6.71082 8.26845 6.45209 9.31868 6.18972 10.368C6.13061 10.6045 5.98329 10.6815 5.74339 10.6464C5.50712 10.6118 5.28414 10.5057 5.02375 10.5134C4.91085 10.8746 4.68614 11.1928 4.60658 11.5915C5.22708 11.7495 5.82738 11.9025 6.45497 12.0624C6.40773 12.6098 6.18086 13.1109 6.11383 13.6622C6.42843 13.7376 6.72457 13.8086 7.03341 13.8827C7.23692 13.3771 7.28387 12.8457 7.47355 12.3228C7.70219 12.4403 7.95584 12.4062 8.17958 12.5541C8.05765 13.0583 7.93615 13.5604 7.81317 14.0689C8.13667 14.1847 8.45228 14.2319 8.77646 14.3126C8.90768 13.7869 9.03455 13.2784 9.15727 12.7867C9.2337 12.7475 9.28961 12.7548 9.34242 12.7661C9.85049 12.8748 10.3645 12.9002 10.8788 12.8431C11.324 12.7937 11.7191 12.624 12.0361 12.2897C12.3886 11.9181 12.5656 11.4635 12.6509 10.9745C12.7204 10.5761 12.7026 10.1725 12.4687 9.81991C12.2855 9.54365 12.0337 9.33283 11.7056 9.16255ZM8.03259 11.2382C8.65939 11.3939 9.2855 11.5604 9.94131 11.4407C10.2911 11.3768 10.5546 11.1984 10.6608 10.8466C10.7609 10.5147 10.7027 10.2132 10.4565 9.95092C10.2006 9.67818 9.8714 9.53641 9.53199 9.41786C9.12649 9.27624 8.71541 9.14757 8.27235 9.11258C8.10258 9.80263 7.93781 10.4724 7.76936 11.157C7.87668 11.1904 7.95357 11.2186 8.03259 11.2382ZM10.2466 8.34654C10.5932 8.29729 10.8806 8.06797 10.9651 7.75639C11.0684 7.3754 10.9529 7.04125 10.6446 6.81398C10.2948 6.55611 9.89192 6.42493 9.47569 6.33385C9.32064 6.2999 9.16811 6.20951 8.98047 6.27053C8.83133 6.87666 8.68157 7.48542 8.52691 8.11405C9.11936 8.26363 9.6649 8.42916 10.2466 8.34654Z" fill="#F39321"/>
</svg>
